<svg width="800" height="600" viewBox="0 0 800 600" xmlns="http://www.w3.org/2000/svg">
  <defs>
    <linearGradient id="redGradient" x1="0%" y1="0%" x2="100%" y2="100%">
      <stop offset="0%" style="stop-color:#E5201D;stop-opacity:1" />
      <stop offset="50%" style="stop-color:#C41E1A;stop-opacity:1" />
      <stop offset="100%" style="stop-color:#A01D18;stop-opacity:1" />
    </linearGradient>
  </defs>
  
  <!-- Background -->
  <rect width="800" height="600" fill="url(#redGradient)"/>
  
  <!-- Diagonal stripes -->
  <g stroke="rgba(255,255,255,0.8)" stroke-width="2" fill="none">
    <!-- Main diagonal lines -->
    <line x1="100" y1="0" x2="300" y2="600" stroke-width="3"/>
    <line x1="200" y1="0" x2="400" y2="600" stroke-width="2"/>
    <line x1="350" y1="0" x2="550" y2="600" stroke-width="3"/>
    <line x1="450" y1="0" x2="650" y2="600" stroke-width="2"/>
    <line x1="550" y1="0" x2="750" y2="600" stroke-width="3"/>
    <line x1="650" y1="0" x2="850" y2="600" stroke-width="2"/>
    
    <!-- Additional thinner lines -->
    <line x1="150" y1="0" x2="350" y2="600" stroke-width="1" stroke="rgba(255,255,255,0.6)"/>
    <line x1="400" y1="0" x2="600" y2="600" stroke-width="1" stroke="rgba(255,255,255,0.6)"/>
    <line x1="600" y1="0" x2="800" y2="600" stroke-width="1" stroke="rgba(255,255,255,0.6)"/>
  </g>
  
  <!-- Curved flowing elements -->
  <g stroke="rgba(255,255,255,0.7)" stroke-width="2" fill="none">
    <!-- Left flowing curve -->
    <path d="M 0 300 Q 150 250 200 350 T 300 320" stroke-width="3"/>
    <path d="M 0 400 Q 100 350 150 400 T 250 380" stroke-width="2"/>
    <path d="M 0 500 Q 80 450 120 480 T 200 460" stroke-width="2"/>
    
    <!-- Right side curves -->
    <path d="M 500 450 Q 600 400 650 480 T 800 450" stroke-width="3"/>
    <path d="M 550 350 Q 650 300 700 380 T 800 350" stroke-width="2"/>
  </g>
  
  <!-- Subtle background elements -->
  <g fill="rgba(255,255,255,0.1)">
    <polygon points="0,200 100,150 150,250 50,300"/>
    <polygon points="600,100 700,50 750,150 650,200"/>
    <polygon points="200,450 300,400 350,500 250,550"/>
  </g>
</svg> 